<!DOCTYPE svg PUBLIC "-//W3C//DTD SVG 1.1//EN" "http://www.w3.org/Graphics/SVG/1.1/DTD/svg11.dtd">
<!-- Uploaded to: SVG Repo, www.svgrepo.com, Transformed by: SVG Repo Mixer Tools -->
<svg width="256px" height="256px" viewBox="-9.12 -9.12 66.24 66.24" fill="none" xmlns="http://www.w3.org/2000/svg" transform="rotate(270)matrix(-1, 0, 0, 1, 0, 0)" stroke="#000000">
<g id="SVGRepo_bgCarrier" stroke-width="0" transform="translate(0,0), scale(1)">
<path transform="translate(-9.12, -9.12), scale(4.14)" fill="#ffffff" d="M9.166.33a2.25 2.25 0 00-2.332 0l-5.25 3.182A2.25 2.25 0 00.5 5.436v5.128a2.25 2.25 0 001.084 1.924l5.25 3.182a2.25 2.25 0 002.332 0l5.25-3.182a2.25 2.25 0 001.084-1.924V5.436a2.25 2.25 0 00-1.084-1.924L9.166.33z" strokewidth="0"/>
</g>
<g id="SVGRepo_tracerCarrier" stroke-linecap="round" stroke-linejoin="round" stroke="#030202" stroke-width="9.6"> <circle cx="10" cy="24" r="4" fill="#2F88FF" stroke="#000000" stroke-width="1.8240000000000003"/> <circle cx="38" cy="10" r="4" fill="#2F88FF" stroke="#000000" stroke-width="1.8240000000000003"/> <circle cx="38" cy="24" r="4" fill="#2F88FF" stroke="#000000" stroke-width="1.8240000000000003"/> <circle cx="38" cy="38" r="4" fill="#2F88FF" stroke="#000000" stroke-width="1.8240000000000003"/> <path d="M34 38L22 38V10H34" stroke="#000000" stroke-width="1.8240000000000003" stroke-linecap="round" stroke-linejoin="round"/> <path d="M14 24L34 24" stroke="#000000" stroke-width="1.8240000000000003" stroke-linecap="round" stroke-linejoin="round"/> </g>
<g id="SVGRepo_iconCarrier"> <circle cx="10" cy="24" r="4" fill="#2F88FF" stroke="#000000" stroke-width="2.7359999999999998"/> <circle cx="38" cy="10" r="4" fill="#2F88FF" stroke="#000000" stroke-width="2.7359999999999998"/> <circle cx="38" cy="24" r="4" fill="#2F88FF" stroke="#000000" stroke-width="2.7359999999999998"/> <circle cx="38" cy="38" r="4" fill="#2F88FF" stroke="#000000" stroke-width="2.7359999999999998"/> <path d="M34 38L22 38V10H34" stroke="#000000" stroke-width="2.7359999999999998" stroke-linecap="round" stroke-linejoin="round"/> <path d="M14 24L34 24" stroke="#000000" stroke-width="2.7359999999999998" stroke-linecap="round" stroke-linejoin="round"/> </g>
</svg>